<?xml version="1.0" encoding="UTF-8"?><svg xmlns="http://www.w3.org/2000/svg" xmlns:xlink="http://www.w3.org/1999/xlink" viewBox="0 0 1200 868.56"><defs><style>.p{fill:url(#i);}.p,.q,.r,.s,.t{mix-blend-mode:multiply;}.u{fill:url(#l);}.q{fill:url(#e);}.v{fill:#0c1126;}.w{isolation:isolate;}.x{fill:url(#g);}.y{clip-path:url(#b);}.r{fill:url(#f);}.a`,.aa,.ab{mix-blend-mode:screen;}.ac{fill:url(#h);}.ad{fill:none;}.aa{fill:url(#d);}.s{fill:url(#n);}.ae{fill:url(#j);}.af{fill:url(#o);}.t{fill:url(#m);}.ag{fill:url(#k);}.ab{fill:url(#c);}.ah{fill:#1c75bc;}</style><clipPath id="b"><rect class="ad" y="261.4" width="1200" height="600"/></clipPath><radialGradient id="c" cx="463.99" cy="546.4" fx="463.99" fy="546.4" r="313.93" gradientTransform="translate(1326.08 114.72) rotate(92.17) scale(1 1.55)" gradientUnits="userSpaceOnUse"><stop offset="0" stop-color="#2484c6"/><stop offset=".1" stop-color="#1e6ea5"/><stop offset=".26" stop-color="#144c73"/><stop offset=".42" stop-color="#0d3149"/><stop offset=".58" stop-color="#071b29"/><stop offset=".73" stop-color="#030c12"/><stop offset=".88" stop-color="#000304"/><stop offset="1" stop-color="#000"/></radialGradient><radialGradient id="d" cx="32.19" cy="512.14" fx="32.19" fy="512.14" r="432.19" gradientTransform="translate(1154.93 -73.7) rotate(48.25) scale(.31 1.47) skewX(.05)" xlink:href="#c"/><linearGradient id="e" x1="142" y1="367.9" x2="520.02" y2="774.99" gradientTransform="matrix(1, 0, 0, 1, 0, 0)" gradientUnits="userSpaceOnUse"><stop offset=".18" stop-color="#231f20"/><stop offset="1" stop-color="#fff" stop-opacity="0"/></linearGradient><linearGradient id="f" x1="379" y1="546.22" x2="487.09" y2="648.64" gradientTransform="matrix(1, 0, 0, 1, 0, 0)" gradientUnits="userSpaceOnUse"><stop offset="0" stop-color="#231f20"/><stop offset="1" stop-color="#231f20" stop-opacity="0"/></linearGradient><linearGradient id="g" x1="145.96" y1="561.4" x2="751.33" y2="561.4" gradientTransform="matrix(1, 0, 0, 1, 0, 0)" gradientUnits="userSpaceOnUse"><stop offset="0" stop-color="#231f20"/><stop offset="1" stop-color="#fff"/></linearGradient><linearGradient id="h" x1="38.7" y1="561.4" x2="644.07" y2="561.4" gradientTransform="matrix(1, 0, 0, 1, 0, 0)" gradientUnits="userSpaceOnUse"><stop offset="0" stop-color="#fff"/><stop offset="1" stop-color="#231f20"/></linearGradient><linearGradient id="i" x1="51.02" y1="310.39" x2="228.22" y2="489.28" xlink:href="#e"/><linearGradient id="j" x1="0" y1="417.36" x2="313.98" y2="417.36" xlink:href="#h"/><linearGradient id="k" x1="120.86" y1="394.97" x2="858.86" y2="1086.97" gradientTransform="matrix(1, 0, 0, 1, 0, 0)" gradientUnits="userSpaceOnUse"><stop offset="0" stop-color="#0c1126"/><stop offset=".32" stop-color="#2484c6"/><stop offset="1" stop-color="#0c1126" stop-opacity="0"/></linearGradient><linearGradient id="l" x1="29" y1="405.82" x2="473.59" y2="852.63" gradientTransform="matrix(1, 0, 0, 1, 0, 0)" gradientUnits="userSpaceOnUse"><stop offset=".33" stop-color="#2484c6" stop-opacity="0"/><stop offset="1" stop-color="#2484c6"/></linearGradient><linearGradient id="m" x1="417.98" y1="614.52" x2="494.9" y2="532.31" gradientTransform="matrix(1, 0, 0, 1, 0, 0)" gradientUnits="userSpaceOnUse"><stop offset="0" stop-color="#231f20"/><stop offset="1" stop-color="#fff" stop-opacity="0"/></linearGradient><linearGradient id="n" x1="278.13" y1="582.62" x2="212.13" y2="650.62" xlink:href="#m"/><linearGradient id="o" x1="454.75" y1="500.42" x2="310.73" y2="623.43" xlink:href="#h"/></defs><g class="w"><g id="a"><g class="y"><rect class="v" y="261.4" width="1200" height="600"/><rect class="ab" y="261.4" width="1200" height="600"/><path class="aa" d="M691.04,535.1C429.77,768.33,177.67,912.27,127.96,856.6c-49.71-55.68,121.8-289.9,383.07-523.13C772.31,100.22,1024.41-43.71,1074.11,11.97c49.7,55.68-121.8,289.89-383.08,523.13Z"/><polygon class="ah" points="0 261.4 0 861.4 39.41 861.4 643.36 261.4 0 261.4"/><polygon class="q" points="0 261.4 0 861.4 39.41 861.4 643.36 261.4 0 261.4"/><polygon class="ah" points="643.36 261.4 39.41 861.4 146.67 861.4 750.63 261.4 643.36 261.4"/><polygon class="r" points="643.36 261.4 39.41 861.4 146.67 861.4 750.63 261.4 643.36 261.4"/><g class="a`"><polygon class="x" points="749.92 261.4 145.96 861.4 147.38 861.4 751.33 261.4 749.92 261.4"/></g><g class="a`"><polygon class="ac" points="642.66 261.4 38.7 861.4 40.12 861.4 644.07 261.4 642.66 261.4"/></g><polygon class="ah" points="0 261.4 0 572.47 313.12 261.4 0 261.4"/><polygon class="p" points="0 261.4 0 572.47 313.12 261.4 0 261.4"/><g class="a`"><polygon class="ae" points="312.27 261.4 0 571.62 0 573.32 313.98 261.4 312.27 261.4"/></g><polygon class="ag" points="0 261.4 0 348.05 513.35 861.4 683.35 861.4 83.35 261.4 0 261.4"/><polygon class="u" points="0 261.4 0 525.4 336 861.4 630.31 861.4 30.31 261.4 0 261.4"/><polygon class="t" points="83.35 261.4 683.35 861.4 852 861.4 252 261.4 83.35 261.4"/><polygon class="s" points="0 465.4 396 861.4 513.35 861.4 0 348.05 0 465.4"/><g class="a`"><polygon class="af" points="82.64 261.4 682.64 861.4 684.06 861.4 84.06 261.4 82.64 261.4"/></g></g></g></g></svg>